# File created by Blade
# Date/Time:  Tue Jan 27 19:05:02 2015
# Frame Rate: 120.000 fps
#------------------------------------------------------
:FULLY-SPECIFIED
:DEGREES
3813
root -6.988321 31.726610 -3.539022 7.469437 9.271701 3.354527
Spine -8.201826 -5.097656 1.467755
Head 13.596997 9.160186 -0.988748
LeftShoulder -18.866062 17.706414 17.115337
LeftArm 19.083082 -31.977725 -44.498362
LeftForeArm -18.115972 -0.000000 27.963654
LeftHand -13.018455 -0.000000 -2.747985
LeftHandThumb1 -26.253704 0.000000 33.147579
RightShoulder -13.275877 -1.808153 -24.825732
RightArm 14.819725 6.820825 43.106702
RightForeArm -24.707220 -0.000000 16.086535
RightHand -16.209438 0.000000 8.893009
RightHandThumb1 -24.326973 -0.000000 -32.862282
LeftUpLeg -0.275491 -8.811408 -2.476692
LeftLeg 0.553782 -0.000000 -0.000000
LeftFoot -16.897227 15.112040 -13.896038
LeftToeBase 10.428366 -0.000000 -0.000000
RightUpLeg 2.171432 -0.522126 -0.917458
RightLeg -5.703505 -0.000000 0.000000
RightFoot -14.707775 -14.437066 7.188905
RightToeBase 4.225473 -0.000000 -0.000000
3814
root -6.983560 31.728667 -3.552593 7.428863 9.209841 3.354926
Spine -8.171802 -5.154401 1.514725
Head 13.627181 9.341558 -1.023864
LeftShoulder -18.803367 17.697660 17.342879
LeftArm 19.504288 -31.204643 -43.721867
LeftForeArm -18.288138 -0.000000 25.778484
LeftHand -12.803934 -0.000000 -3.490632
LeftHandThumb1 -26.253704 0.000000 33.147579
RightShoulder -13.291169 -1.538499 -25.200856
RightArm 15.073328 7.100885 42.671709
RightForeArm -24.443808 -0.000000 15.650456
RightHand -16.409448 -0.000000 8.605019
RightHandThumb1 -24.326973 -0.000000 -32.862282
LeftUpLeg -0.274151 -8.753338 -2.500330
LeftLeg 0.597693 -0.000000 -0.000000
LeftFoot -16.883598 15.124556 -13.877645
LeftToeBase 10.395511 -0.000000 -0.000000
RightUpLeg 2.121090 -0.673878 -0.928667
RightLeg -5.578759 -0.000000 0.000000
RightFoot -14.741705 -14.264810 7.157995
RightToeBase 4.249936 -0.000000 -0.000000
3815
root -6.980475 31.730827 -3.566104 7.382548 9.157152 3.351712
Spine -8.142636 -5.227823 1.552192
Head 13.669077 9.520714 -1.026924
LeftShoulder -18.872281 17.802536 17.473215
LeftArm 20.230579 -30.391667 -42.958966
LeftForeArm -18.435818 -0.000000 23.399293
LeftHand -12.565696 -0.000000 -4.295016
LeftHandThumb1 -26.253704 0.000000 33.147579
RightShoulder -13.271643 -1.371874 -25.500806
RightArm 15.366490 7.395078 42.183181
RightForeArm -24.185935 -0.000000 15.229117
RightHand -16.327817 -0.000000 8.620485
RightHandThumb1 -24.326973 -0.000000 -32.862282
LeftUpLeg -0.272562 -8.645289 -2.516818
LeftLeg 0.648712 -0.000000 -0.000000
LeftFoot -16.893595 15.055774 -13.897615
LeftToeBase 10.447277 -0.000000 -0.000000
RightUpLeg 2.063484 -0.854036 -0.933805
RightLeg -5.428701 -0.000000 0.000000
RightFoot -14.763115 -14.080454 7.065396
RightToeBase 4.224758 -0.000000 -0.000000
3816
root -6.977031 31.732726 -3.579240 7.333843 9.095687 3.349029
Spine -8.112518 -5.285034 1.591255
Head 13.696389 9.685179 -1.037271
LeftShoulder -18.744015 17.630550 17.795212
LeftArm 20.502899 -29.386637 -42.079183
LeftForeArm -18.636578 -0.000000 21.060126
LeftHand -12.415030 -0.000000 -5.407398
LeftHandThumb1 -26.253704 0.000000 33.147579
RightShoulder -13.242504 -1.147003 -25.832114
RightArm 15.627876 7.602868 41.722193
RightForeArm -23.871541 -0.000000 14.716230
RightHand -16.260565 -0.000000 8.626406
RightHandThumb1 -24.326973 -0.000000 -32.862282
LeftUpLeg -0.260213 -8.558928 -2.538189
LeftLeg 0.680586 -0.000000 -0.000000
LeftFoot -16.868935 15.047967 -13.867069
LeftToeBase 10.360104 -0.000000 -0.000000
RightUpLeg 2.058852 -0.850380 -0.948403
RightLeg -5.381556 -0.000000 0.000000
RightFoot -14.772037 -14.033116 7.054544
RightToeBase 4.269163 -0.000000 -0.000000
3817
root -6.974685 31.734194 -3.590516 7.291019 9.042768 3.336763
Spine -8.092615 -5.370711 1.632029
Head 13.710722 9.846634 -1.031481
LeftShoulder -18.623095 17.386357 18.142911
LeftArm 20.735255 -28.261300 -41.178820
LeftForeArm -19.024247 -0.000000 18.645547
LeftHand -12.209798 -0.000000 -6.402824
LeftHandThumb1 -26.253704 0.000000 33.147579
RightShoulder -13.219931 -0.920816 -26.149671
RightArm 15.932334 7.788398 41.284895
RightForeArm -23.596934 -0.000000 14.127556
RightHand -15.949616 -0.000000 8.808332
RightHandThumb1 -24.326973 -0.000000 -32.862282
LeftUpLeg -0.255469 -8.455572 -2.543197
LeftLeg 0.723787 -0.000000 -0.000000
LeftFoot -16.894418 14.986885 -13.892580
LeftToeBase 10.488096 -0.000000 -0.000000
RightUpLeg 2.057605 -0.857418 -0.950226
RightLeg -5.349921 -0.000000 0.000000
RightFoot -14.773521 -13.967853 7.088135
RightToeBase 4.256351 -0.000000 -0.000000
3818
root -6.973165 31.736063 -3.602767 7.241596 8.995382 3.322148
Spine -8.065193 -5.448353 1.670728
Head 13.723400 9.979745 -1.002017
LeftShoulder -18.610484 17.617671 18.295407
LeftArm 21.488966 -27.394329 -40.467887
LeftForeArm -19.513413 -0.000000 16.147936
LeftHand -12.048584 -0.000000 -7.232427
LeftHandThumb1 -26.253704 0.000000 33.147579
RightShoulder -13.202824 -0.775916 -26.458508
RightArm 16.311557 8.067912 40.919943
RightForeArm -23.505081 -0.000000 13.490541
RightHand -15.848688 0.000000 9.058315
RightHandThumb1 -24.326973 -0.000000 -32.862282
LeftUpLeg -0.237782 -8.377835 -2.543958
LeftLeg 0.744857 -0.000000 -0.000000
LeftFoot -16.863138 14.961286 -13.874174
LeftToeBase 10.425098 -0.000000 -0.000000
RightUpLeg 2.067160 -0.830633 -0.948187
RightLeg -5.330067 -0.000000 0.000000
RightFoot -14.740107 -13.958460 7.051536
RightToeBase 4.268002 -0.000000 -0.000000
3819
root -6.970799 31.737890 -3.614443 7.183086 8.943810 3.315429
Spine -8.040023 -5.528735 1.690018
Head 13.772855 10.092966 -0.973758
LeftShoulder -18.466419 17.544475 18.672907
LeftArm 21.893768 -26.340136 -39.773815
LeftForeArm -20.067037 -0.000000 13.665759
LeftHand -11.966311 -0.000000 -8.243296
LeftHandThumb1 -26.253704 0.000000 33.147579
RightShoulder -13.171623 -0.510025 -26.760624
RightArm 16.618627 8.121603 40.479752
RightForeArm -23.213245 0.000000 12.784462
RightHand -15.723767 -0.000000 9.424338
RightHandThumb1 -24.326973 -0.000000 -32.862282
LeftUpLeg -0.205624 -8.305859 -2.557084
LeftLeg 0.766672 -0.000000 -0.000000
LeftFoot -16.872412 14.940732 -13.858272
LeftToeBase 10.466106 -0.000000 -0.000000
RightUpLeg 2.087446 -0.824345 -0.955885
RightLeg -5.310453 -0.000000 0.000000
RightFoot -14.720072 -13.915576 7.064761
RightToeBase 4.262513 -0.000000 -0.000000
